<?xml version="1.0" encoding="UTF-8" standalone="no"?>
<!DOCTYPE svg PUBLIC "-//W3C//DTD SVG 1.1//EN"
 "http://www.w3.org/Graphics/SVG/1.1/DTD/svg11.dtd">
<!-- Generated by graphviz version 2.38.0 (20140413.2041)
 -->
<!-- Title: G Pages: 1 -->
<svg width="1111pt" height="132pt"
 viewBox="0.00 0.00 1111.00 132.00" xmlns="http://www.w3.org/2000/svg" xmlns:xlink="http://www.w3.org/1999/xlink">
<g id="graph0" class="graph" transform="scale(1 1) rotate(0) translate(4 128)">
<title>G</title>
<polygon fill="white" stroke="none" points="-4,4 -4,-128 1107,-128 1107,4 -4,4"/>
<!-- node_0 -->
<g id="node1" class="node"><title>node_0</title>
<text text-anchor="middle" x="34.5" y="-72.9" font-family="Times,serif" font-size="12.00">Expression</text>
</g>
<!-- node_3 -->
<g id="node2" class="node"><title>node_3</title>
<text text-anchor="middle" x="140.5" y="-72.9" font-family="Times,serif" font-size="12.00">Expression</text>
</g>
<!-- node_0&#45;&gt;node_3 -->
<g id="edge1" class="edge"><title>node_0&#45;&gt;node_3</title>
<path fill="none" stroke="black" d="M69.2658,-76C77.7065,-76 86.8812,-76 95.7296,-76"/>
<polygon fill="black" stroke="black" points="95.9036,-79.5001 105.904,-76 95.9036,-72.5001 95.9036,-79.5001"/>
</g>
<!-- node_6 -->
<g id="node3" class="node"><title>node_6</title>
<text text-anchor="middle" x="262" y="-72.9" font-family="Times,serif" font-size="12.00">Condition</text>
</g>
<!-- node_3&#45;&gt;node_6 -->
<g id="edge2" class="edge"><title>node_3&#45;&gt;node_6</title>
<path fill="none" stroke="black" d="M175.105,-76C188.882,-76 204.968,-76 219.471,-76"/>
<polygon fill="black" stroke="black" points="219.696,-79.5001 229.695,-76 219.695,-72.5001 219.696,-79.5001"/>
</g>
<!-- node_6&#45;&gt;node_3 -->
<g id="edge3" class="edge"><title>node_6&#45;&gt;node_3</title>
<path fill="none" stroke="green" d="M229.776,-63.4394C223.956,-61.5961 217.86,-59.9877 212,-59 203.16,-57.5101 193.783,-58.1641 184.853,-59.8847"/>
<polygon fill="green" stroke="green" points="183.932,-56.506 175.012,-62.223 185.55,-63.3164 183.932,-56.506"/>
<text text-anchor="middle" x="202.5" y="-62.4" font-family="Times,serif" font-size="12.00">true</text>
</g>
<!-- node_11 -->
<g id="node4" class="node"><title>node_11</title>
<text text-anchor="middle" x="384" y="-72.9" font-family="Times,serif" font-size="12.00">Condition</text>
</g>
<!-- node_6&#45;&gt;node_11 -->
<g id="edge4" class="edge"><title>node_6&#45;&gt;node_11</title>
<path fill="none" stroke="black" d="M294.215,-76C308.66,-76 326.021,-76 341.545,-76"/>
<polygon fill="black" stroke="black" points="341.941,-79.5001 351.941,-76 341.941,-72.5001 341.941,-79.5001"/>
<text text-anchor="middle" x="323" y="-79.4" font-family="Times,serif" font-size="12.00">false</text>
</g>
<!-- node_16 -->
<g id="node5" class="node"><title>node_16</title>
<text text-anchor="middle" x="508.5" y="-99.9" font-family="Times,serif" font-size="12.00">Expression</text>
</g>
<!-- node_11&#45;&gt;node_16 -->
<g id="edge5" class="edge"><title>node_11&#45;&gt;node_16</title>
<path fill="none" stroke="green" d="M416.243,-85.4467C422.115,-87.0739 428.224,-88.6678 434,-90 443.559,-92.2047 453.892,-94.2423 463.705,-96.0189"/>
<polygon fill="green" stroke="green" points="463.235,-99.4897 473.689,-97.7717 464.445,-92.5951 463.235,-99.4897"/>
<text text-anchor="middle" x="445" y="-98.4" font-family="Times,serif" font-size="12.00">true</text>
</g>
<!-- node_19 -->
<g id="node6" class="node"><title>node_19</title>
<text text-anchor="middle" x="508.5" y="-36.9" font-family="Times,serif" font-size="12.00">Expression</text>
</g>
<!-- node_11&#45;&gt;node_19 -->
<g id="edge6" class="edge"><title>node_11&#45;&gt;node_19</title>
<path fill="none" stroke="black" d="M416.208,-60.6881C422.029,-58.2066 428.13,-55.8488 434,-54 443.471,-51.017 453.84,-48.5671 463.726,-46.598"/>
<polygon fill="black" stroke="black" points="464.608,-49.994 473.795,-44.7178 463.323,-43.1129 464.608,-49.994"/>
<text text-anchor="middle" x="445" y="-57.4" font-family="Times,serif" font-size="12.00">false</text>
</g>
<!-- node_16&#45;&gt;node_11 -->
<g id="edge7" class="edge"><title>node_16&#45;&gt;node_11</title>
<path fill="none" stroke="black" d="M482.488,-84.8941C474.426,-80.0541 465.19,-75.4816 456,-73 446.541,-70.4459 436.118,-69.7651 426.24,-70.0411"/>
<polygon fill="black" stroke="black" points="425.981,-66.5503 416.206,-70.6368 426.396,-73.538 425.981,-66.5503"/>
<text text-anchor="middle" x="445" y="-76.4" font-family="Times,serif" font-size="12.00"> </text>
</g>
<!-- node_22 -->
<g id="node7" class="node"><title>node_22</title>
<text text-anchor="middle" x="614.5" y="-36.9" font-family="Times,serif" font-size="12.00">Expression</text>
</g>
<!-- node_19&#45;&gt;node_22 -->
<g id="edge8" class="edge"><title>node_19&#45;&gt;node_22</title>
<path fill="none" stroke="black" d="M543.266,-40C551.707,-40 560.881,-40 569.73,-40"/>
<polygon fill="black" stroke="black" points="569.904,-43.5001 579.904,-40 569.904,-36.5001 569.904,-43.5001"/>
</g>
<!-- node_25 -->
<g id="node8" class="node"><title>node_25</title>
<text text-anchor="middle" x="714.5" y="-36.9" font-family="Times,serif" font-size="12.00">For loop</text>
</g>
<!-- node_22&#45;&gt;node_25 -->
<g id="edge9" class="edge"><title>node_22&#45;&gt;node_25</title>
<path fill="none" stroke="black" d="M649.226,-40C657.728,-40 666.912,-40 675.604,-40"/>
<polygon fill="black" stroke="black" points="675.884,-43.5001 685.884,-40 675.884,-36.5001 675.884,-43.5001"/>
</g>
<!-- node_30 -->
<g id="node9" class="node"><title>node_30</title>
<text text-anchor="middle" x="838.5" y="-68.9" font-family="Times,serif" font-size="12.00">Condition</text>
</g>
<!-- node_25&#45;&gt;node_30 -->
<g id="edge10" class="edge"><title>node_25&#45;&gt;node_30</title>
<path fill="none" stroke="black" d="M743.184,-47.2613C758.934,-51.3925 778.958,-56.6448 796.501,-61.2462"/>
<polygon fill="black" stroke="black" points="795.932,-64.7151 806.492,-63.8669 797.708,-57.9442 795.932,-64.7151"/>
<text text-anchor="middle" x="773.5" y="-61.4" font-family="Times,serif" font-size="12.00">body</text>
</g>
<!-- node_41 -->
<g id="node10" class="node"><title>node_41</title>
<text text-anchor="middle" x="838.5" y="-14.9" font-family="Times,serif" font-size="12.00">Expression</text>
</g>
<!-- node_25&#45;&gt;node_41 -->
<g id="edge11" class="edge"><title>node_25&#45;&gt;node_41</title>
<path fill="none" stroke="black" d="M743.184,-35.0079C758.088,-32.3202 776.82,-28.9423 793.654,-25.9066"/>
<polygon fill="black" stroke="black" points="794.62,-29.289 803.84,-24.0698 793.378,-22.4001 794.62,-29.289"/>
<text text-anchor="middle" x="773.5" y="-35.4" font-family="Times,serif" font-size="12.00">done</text>
</g>
<!-- node_35 -->
<g id="node11" class="node"><title>node_35</title>
<text text-anchor="middle" x="962.5" y="-68.9" font-family="Times,serif" font-size="12.00">Expression</text>
</g>
<!-- node_30&#45;&gt;node_35 -->
<g id="edge12" class="edge"><title>node_30&#45;&gt;node_35</title>
<path fill="none" stroke="green" d="M870.601,-72C884.827,-72 901.934,-72 917.451,-72"/>
<polygon fill="green" stroke="green" points="917.886,-75.5001 927.885,-72 917.885,-68.5001 917.886,-75.5001"/>
<text text-anchor="middle" x="900.5" y="-75.4" font-family="Times,serif" font-size="12.00">true</text>
</g>
<!-- node_38 -->
<g id="node12" class="node"><title>node_38</title>
<text text-anchor="middle" x="1068.5" y="-102.9" font-family="Times,serif" font-size="12.00">Expression</text>
</g>
<!-- node_30&#45;&gt;node_38 -->
<g id="edge13" class="edge"><title>node_30&#45;&gt;node_38</title>
<path fill="none" stroke="black" d="M870.733,-82.6142C877.4,-84.7945 884.416,-87.0253 891,-89 907.316,-93.8939 911.175,-96.3357 928,-99 959.75,-104.028 996.025,-105.726 1023.62,-106.194"/>
<polygon fill="black" stroke="black" points="1023.71,-109.695 1033.75,-106.318 1023.79,-102.696 1023.71,-109.695"/>
<text text-anchor="middle" x="962.5" y="-109.4" font-family="Times,serif" font-size="12.00">false</text>
</g>
<!-- node_44 -->
<g id="node13" class="node"><title>node_44</title>
<text text-anchor="middle" x="962.5" y="-14.9" font-family="Times,serif" font-size="12.00">Expression</text>
</g>
<!-- node_41&#45;&gt;node_44 -->
<g id="edge15" class="edge"><title>node_41&#45;&gt;node_44</title>
<path fill="none" stroke="black" d="M873.16,-18C886.895,-18 902.961,-18 917.598,-18"/>
<polygon fill="black" stroke="black" points="917.95,-21.5001 927.95,-18 917.95,-14.5001 917.95,-21.5001"/>
</g>
<!-- node_35&#45;&gt;node_38 -->
<g id="edge14" class="edge"><title>node_35&#45;&gt;node_38</title>
<path fill="none" stroke="black" d="M997.266,-83.0388C1005.89,-85.8583 1015.28,-88.9282 1024.31,-91.879"/>
<polygon fill="black" stroke="black" points="1023.31,-95.2358 1033.9,-95.0166 1025.49,-88.5824 1023.31,-95.2358"/>
</g>
</g>
</svg>
